<?xml version="1.0" standalone="no"?>
<!DOCTYPE svg PUBLIC "-//W3C//DTD SVG 20010904//EN"
 "http://www.w3.org/TR/2001/REC-SVG-20010904/DTD/svg10.dtd">
<svg version="1.0" xmlns="http://www.w3.org/2000/svg"
 width="3264.000000pt" height="1218.000000pt" viewBox="0 0 3264.000000 1218.000000"
 preserveAspectRatio="xMidYMid meet">

<g transform="translate(0.000000,1218.000000) scale(0.100000,-0.100000)"
fill="#000000" stroke="none">
<path d="M2870 9453 c-25 -16 -329 -244 -819 -614 -289 -218 -286 -214 -188
-277 35 -23 66 -42 69 -42 4 0 39 -20 80 -44 165 -101 343 -200 364 -204 30
-5 40 11 130 219 41 96 95 219 120 274 65 142 77 169 119 270 40 98 91 215
137 313 52 113 48 146 -12 105z"/>
<path d="M2972 9407 c-6 -7 -34 -64 -62 -127 -28 -63 -73 -164 -100 -225 -28
-60 -85 -193 -129 -295 -43 -102 -111 -258 -150 -348 -39 -89 -71 -172 -71
-185 0 -22 90 -118 151 -163 15 -10 81 -68 147 -129 65 -60 161 -146 212 -190
84 -72 145 -126 280 -249 25 -23 61 -54 80 -70 19 -15 58 -49 85 -75 67 -63
145 -121 161 -121 8 0 14 11 14 25 0 32 -103 434 -210 825 -45 162 -95 347
-111 410 -17 63 -59 221 -94 350 -75 277 -96 356 -125 470 -12 47 -27 91 -32
98 -13 16 -33 15 -46 -1z"/>
<path d="M1746 8545 c-15 -15 -136 -368 -136 -397 0 -22 36 -42 58 -33 9 4 73
13 142 21 69 8 150 18 180 23 30 5 98 14 150 21 134 16 154 22 158 48 4 24 -8
32 -178 129 -58 33 -134 78 -170 100 -153 94 -184 107 -204 88z"/>
<path d="M2289 8166 c-6 -6 -51 -13 -264 -41 -247 -32 -315 -48 -315 -70 0
-15 304 -173 413 -216 50 -20 135 -60 494 -235 94 -46 173 -84 176 -84 6 0
184 -84 367 -173 144 -70 253 -117 270 -117 26 0 6 42 -37 77 -27 21 -100 85
-164 143 -64 58 -161 143 -214 190 -53 47 -127 111 -164 143 -36 32 -97 87
-136 122 -274 249 -287 259 -359 263 -34 2 -64 1 -67 -2z"/>
<path d="M1796 7902 c32 -32 288 -236 509 -407 29 -22 142 -110 251 -196 110
-86 209 -161 221 -167 28 -15 651 -16 673 -2 13 9 12 13 -5 26 -11 9 -58 34
-105 56 -47 22 -200 94 -340 160 -140 66 -285 135 -321 154 -36 19 -68 34 -72
34 -6 0 -113 51 -452 215 -160 78 -362 165 -382 165 -9 0 0 -15 23 -38z"/>
</g>
</svg>
